<svg width="40" height="40" viewBox="0 0 40 40" fill="none" xmlns="http://www.w3.org/2000/svg">
<path d="M20 35C28.2843 35 35 28.2843 35 20C35 11.7157 28.2843 5 20 5C11.7157 5 5 11.7157 5 20C5 28.2843 11.7157 35 20 35Z" fill="#EA4C89"/>
<path fill-rule="evenodd" clip-rule="evenodd" d="M20 5C11.7191 5 5 11.7191 5 20C5 28.2809 11.7191 35 20 35C28.2646 35 35 28.2809 35 20C35 11.7191 28.2646 5 20 5ZM29.9078 11.9143C31.6974 14.0944 32.7712 16.8764 32.8037 19.8861C32.3807 19.8048 28.1508 18.9425 23.8883 19.4794C23.7907 19.2679 23.7093 19.0401 23.6117 18.8124C23.3514 18.1942 23.0586 17.5597 22.7657 16.9577C27.4837 15.038 29.6312 12.2722 29.9078 11.9143ZM20 7.21258C23.2538 7.21258 26.231 8.43275 28.4924 10.4338C28.2646 10.7592 26.3286 13.346 21.7733 15.0542C19.6746 11.1985 17.3482 8.0423 16.9903 7.55423C17.9501 7.32646 18.9588 7.21258 20 7.21258ZM14.5499 8.41649C14.8915 8.87201 17.1692 12.0445 19.3004 15.8189C13.3134 17.4132 8.02604 17.3807 7.45662 17.3807C8.28632 13.4111 10.9707 10.1085 14.5499 8.41649ZM7.18004 20.0163C7.18004 19.8861 7.18004 19.756 7.18004 19.6258C7.73319 19.6421 13.948 19.7234 20.3416 17.8037C20.7158 18.5195 21.0575 19.2516 21.3829 19.9837C21.2202 20.0326 21.0412 20.0814 20.8785 20.1301C14.2733 22.2614 10.7592 28.0857 10.4664 28.5738C8.43275 26.3124 7.18004 23.3026 7.18004 20.0163ZM20 32.82C17.0391 32.82 14.3059 31.8113 12.1421 30.1193C12.3699 29.6475 14.9729 24.6367 22.1963 22.115C22.2289 22.0987 22.2451 22.0987 22.2777 22.0824C24.0835 26.7516 24.8156 30.6724 25.0108 31.795C23.4653 32.462 21.7733 32.82 20 32.82ZM27.1421 30.6237C27.0119 29.8427 26.3287 26.1009 24.6529 21.4968C28.6714 20.8623 32.1855 21.9035 32.6247 22.0499C32.0716 25.6128 30.0217 28.6876 27.1421 30.6237Z" fill="#C32361"/>
</svg>
