<svg width="40" height="40" viewBox="0 0 40 40" fill="none" xmlns="http://www.w3.org/2000/svg">
<path d="M20.0006 5.45459C16.0504 5.45459 15.5546 5.47186 14.0032 5.54247C12.4547 5.61338 11.3978 5.85853 10.473 6.21823C9.51634 6.58974 8.70485 7.08671 7.89639 7.8955C7.08733 8.70398 6.59037 9.5155 6.21766 10.4719C5.85706 11.397 5.61161 12.4543 5.54192 14.0022C5.47253 15.5537 5.45435 16.0497 5.45435 20C5.45435 23.9503 5.47192 24.4446 5.54222 25.9961C5.61343 27.5446 5.85858 28.6016 6.21796 29.5264C6.58977 30.4831 7.08672 31.2946 7.89548 32.1031C8.70364 32.9122 9.51513 33.4103 10.4712 33.7819C11.3966 34.1416 12.4538 34.3867 14.002 34.4576C15.5534 34.5282 16.0489 34.5455 19.9988 34.5455C23.9492 34.5455 24.4435 34.5282 25.9949 34.4576C27.5434 34.3867 28.6015 34.1416 29.527 33.7819C30.4833 33.4103 31.2936 32.9122 32.1017 32.1031C32.9108 31.2946 33.4077 30.4831 33.7805 29.5267C34.138 28.6016 34.3835 27.5443 34.4562 25.9964C34.5259 24.4449 34.5441 23.9503 34.5441 20C34.5441 16.0497 34.5259 15.554 34.4562 14.0025C34.3835 12.454 34.138 11.397 33.7805 10.4722C33.4077 9.5155 32.9108 8.70398 32.1017 7.8955C31.2927 7.08641 30.4836 6.58944 29.526 6.21823C28.5988 5.85853 27.5413 5.61338 25.9928 5.54247C24.4413 5.47186 23.9474 5.45459 19.996 5.45459H20.0006ZM18.6958 8.0758C19.083 8.0752 19.5151 8.0758 20.0006 8.0758C23.8841 8.0758 24.3444 8.08974 25.878 8.15944C27.2961 8.22429 28.0658 8.46126 28.5785 8.66035C29.2573 8.92398 29.7412 9.23913 30.25 9.74823C30.759 10.2573 31.0742 10.7422 31.3384 11.421C31.5375 11.9331 31.7748 12.7028 31.8393 14.121C31.909 15.6543 31.9241 16.1149 31.9241 19.9967C31.9241 23.8785 31.909 24.3391 31.8393 25.8725C31.7745 27.2906 31.5375 28.0603 31.3384 28.5725C31.0748 29.2513 30.759 29.7346 30.25 30.2434C29.7409 30.7525 29.2576 31.0676 28.5785 31.3313C28.0664 31.5313 27.2961 31.7676 25.878 31.8325C24.3447 31.9022 23.8841 31.9173 20.0006 31.9173C16.1167 31.9173 15.6565 31.9022 14.1232 31.8325C12.705 31.767 11.9354 31.53 11.4223 31.331C10.7436 31.0673 10.2587 30.7522 9.74967 30.2431C9.24059 29.734 8.92545 29.2503 8.66122 28.5713C8.46213 28.0591 8.22487 27.2894 8.16032 25.8713C8.09063 24.3379 8.07669 23.8773 8.07669 19.9931C8.07669 16.1088 8.09063 15.6507 8.16032 14.1173C8.22517 12.6991 8.46213 11.9294 8.66122 11.4167C8.92485 10.7379 9.24059 10.2531 9.74967 9.74398C10.2587 9.23489 10.7436 8.91974 11.4223 8.6555C11.9351 8.4555 12.705 8.21914 14.1232 8.15398C15.465 8.09338 15.9849 8.0752 18.6958 8.07217V8.0758ZM27.7646 10.491C26.801 10.491 26.0192 11.2719 26.0192 12.2358C26.0192 13.1994 26.801 13.9813 27.7646 13.9813C28.7282 13.9813 29.51 13.1994 29.51 12.2358C29.51 11.2722 28.7282 10.4903 27.7646 10.4903V10.491ZM20.0006 12.5303C15.8755 12.5303 12.5311 15.8749 12.5311 20C12.5311 24.1252 15.8755 27.4682 20.0006 27.4682C24.1256 27.4682 27.4688 24.1252 27.4688 20C27.4688 15.8749 24.1253 12.5303 20.0003 12.5303H20.0006ZM20.0006 15.1516C22.6781 15.1516 24.8489 17.3222 24.8489 20C24.8489 22.6776 22.6781 24.8485 20.0006 24.8485C17.3228 24.8485 15.1522 22.6776 15.1522 20C15.1522 17.3222 17.3228 15.1516 20.0006 15.1516V15.1516Z" fill="url(#paint0_radial)"/>
<path d="M20.0006 5.45459C16.0504 5.45459 15.5546 5.47186 14.0032 5.54247C12.4547 5.61338 11.3978 5.85853 10.473 6.21823C9.51634 6.58974 8.70485 7.08671 7.89639 7.8955C7.08733 8.70398 6.59037 9.5155 6.21766 10.4719C5.85706 11.397 5.61161 12.4543 5.54192 14.0022C5.47253 15.5537 5.45435 16.0497 5.45435 20C5.45435 23.9503 5.47192 24.4446 5.54222 25.9961C5.61343 27.5446 5.85858 28.6016 6.21796 29.5264C6.58977 30.4831 7.08672 31.2946 7.89548 32.1031C8.70364 32.9122 9.51513 33.4103 10.4712 33.7819C11.3966 34.1416 12.4538 34.3867 14.002 34.4576C15.5534 34.5282 16.0489 34.5455 19.9988 34.5455C23.9492 34.5455 24.4435 34.5282 25.9949 34.4576C27.5434 34.3867 28.6015 34.1416 29.527 33.7819C30.4833 33.4103 31.2936 32.9122 32.1017 32.1031C32.9108 31.2946 33.4077 30.4831 33.7805 29.5267C34.138 28.6016 34.3835 27.5443 34.4562 25.9964C34.5259 24.4449 34.5441 23.9503 34.5441 20C34.5441 16.0497 34.5259 15.554 34.4562 14.0025C34.3835 12.454 34.138 11.397 33.7805 10.4722C33.4077 9.5155 32.9108 8.70398 32.1017 7.8955C31.2927 7.08641 30.4836 6.58944 29.526 6.21823C28.5988 5.85853 27.5413 5.61338 25.9928 5.54247C24.4413 5.47186 23.9474 5.45459 19.996 5.45459H20.0006ZM18.6958 8.0758C19.083 8.0752 19.5151 8.0758 20.0006 8.0758C23.8841 8.0758 24.3444 8.08974 25.878 8.15944C27.2961 8.22429 28.0658 8.46126 28.5785 8.66035C29.2573 8.92398 29.7412 9.23913 30.25 9.74823C30.759 10.2573 31.0742 10.7422 31.3384 11.421C31.5375 11.9331 31.7748 12.7028 31.8393 14.121C31.909 15.6543 31.9241 16.1149 31.9241 19.9967C31.9241 23.8785 31.909 24.3391 31.8393 25.8725C31.7745 27.2906 31.5375 28.0603 31.3384 28.5725C31.0748 29.2513 30.759 29.7346 30.25 30.2434C29.7409 30.7525 29.2576 31.0676 28.5785 31.3313C28.0664 31.5313 27.2961 31.7676 25.878 31.8325C24.3447 31.9022 23.8841 31.9173 20.0006 31.9173C16.1167 31.9173 15.6565 31.9022 14.1232 31.8325C12.705 31.767 11.9354 31.53 11.4223 31.331C10.7436 31.0673 10.2587 30.7522 9.74967 30.2431C9.24059 29.734 8.92545 29.2503 8.66122 28.5713C8.46213 28.0591 8.22487 27.2894 8.16032 25.8713C8.09063 24.3379 8.07669 23.8773 8.07669 19.9931C8.07669 16.1088 8.09063 15.6507 8.16032 14.1173C8.22517 12.6991 8.46213 11.9294 8.66122 11.4167C8.92485 10.7379 9.24059 10.2531 9.74967 9.74398C10.2587 9.23489 10.7436 8.91974 11.4223 8.6555C11.9351 8.4555 12.705 8.21914 14.1232 8.15398C15.465 8.09338 15.9849 8.0752 18.6958 8.07217V8.0758ZM27.7646 10.491C26.801 10.491 26.0192 11.2719 26.0192 12.2358C26.0192 13.1994 26.801 13.9813 27.7646 13.9813C28.7282 13.9813 29.51 13.1994 29.51 12.2358C29.51 11.2722 28.7282 10.4903 27.7646 10.4903V10.491ZM20.0006 12.5303C15.8755 12.5303 12.5311 15.8749 12.5311 20C12.5311 24.1252 15.8755 27.4682 20.0006 27.4682C24.1256 27.4682 27.4688 24.1252 27.4688 20C27.4688 15.8749 24.1253 12.5303 20.0003 12.5303H20.0006ZM20.0006 15.1516C22.6781 15.1516 24.8489 17.3222 24.8489 20C24.8489 22.6776 22.6781 24.8485 20.0006 24.8485C17.3228 24.8485 15.1522 22.6776 15.1522 20C15.1522 17.3222 17.3228 15.1516 20.0006 15.1516V15.1516Z" fill="url(#paint1_radial)"/>
<defs>
<radialGradient id="paint0_radial" cx="0" cy="0" r="1" gradientUnits="userSpaceOnUse" gradientTransform="translate(13.1813 36.7861) rotate(-90) scale(28.8312 26.8142)">
<stop stop-color="#FFDD55"/>
<stop offset="0.1" stop-color="#FFDD55"/>
<stop offset="0.5" stop-color="#FF543E"/>
<stop offset="1" stop-color="#C837AB"/>
</radialGradient>
<radialGradient id="paint1_radial" cx="0" cy="0" r="1" gradientUnits="userSpaceOnUse" gradientTransform="translate(0.581663 7.55025) rotate(78.6811) scale(12.8877 53.1215)">
<stop stop-color="#3771C8"/>
<stop offset="0.128" stop-color="#3771C8"/>
<stop offset="1" stop-color="#6600FF" stop-opacity="0"/>
</radialGradient>
</defs>
</svg>
