<svg width="1033" height="1017" viewBox="0 0 1033 1017" fill="none" xmlns="http://www.w3.org/2000/svg">
<path d="M917.5 1H917.65C917.65 0.917157 917.583 0.85 917.5 0.85V1ZM917.5 306.5V306.65C917.583 306.65 917.65 306.583 917.65 306.5H917.5ZM1 306.5V306.35C0.917157 306.35 0.85 306.417 0.85 306.5H1ZM1 655H0.85C0.85 655.083 0.917157 655.15 1 655.15V655ZM1032.5 655H1032.65C1032.65 654.917 1032.58 654.85 1032.5 654.85V655ZM1032.5 1016.5V1016.65C1032.58 1016.65 1032.65 1016.58 1032.65 1016.5H1032.5ZM7.54643 1.15C7.62927 1.15 7.69643 1.08284 7.69643 1C7.69643 0.917157 7.62927 0.85 7.54643 0.85V1.15ZM20.6393 0.85C20.5564 0.85 20.4893 0.917157 20.4893 1C20.4893 1.08284 20.5564 1.15 20.6393 1.15V0.85ZM33.7321 1.15C33.815 1.15 33.8821 1.08284 33.8821 1C33.8821 0.917157 33.815 0.85 33.7321 0.85V1.15ZM46.825 0.85C46.7422 0.85 46.675 0.917157 46.675 1C46.675 1.08284 46.7422 1.15 46.825 1.15V0.85ZM59.9179 1.15C60.0007 1.15 60.0679 1.08284 60.0679 1C60.0679 0.917157 60.0007 0.85 59.9179 0.85V1.15ZM73.0107 0.85C72.9279 0.85 72.8607 0.917157 72.8607 1C72.8607 1.08284 72.9279 1.15 73.0107 1.15V0.85ZM86.1036 1.15C86.1864 1.15 86.2536 1.08284 86.2536 1C86.2536 0.917157 86.1864 0.85 86.1036 0.85V1.15ZM99.1964 0.85C99.1136 0.85 99.0464 0.917157 99.0464 1C99.0464 1.08284 99.1136 1.15 99.1964 1.15V0.85ZM112.289 1.15C112.372 1.15 112.439 1.08284 112.439 1C112.439 0.917157 112.372 0.85 112.289 0.85V1.15ZM125.382 0.85C125.299 0.85 125.232 0.917157 125.232 1C125.232 1.08284 125.299 1.15 125.382 1.15V0.85ZM138.475 1.15C138.558 1.15 138.625 1.08284 138.625 1C138.625 0.917157 138.558 0.85 138.475 0.85V1.15ZM151.568 0.85C151.485 0.85 151.418 0.917157 151.418 1C151.418 1.08284 151.485 1.15 151.568 1.15V0.85ZM164.661 1.15C164.744 1.15 164.811 1.08284 164.811 1C164.811 0.917157 164.744 0.85 164.661 0.85V1.15ZM177.754 0.85C177.671 0.85 177.604 0.917157 177.604 1C177.604 1.08284 177.671 1.15 177.754 1.15V0.85ZM190.846 1.15C190.929 1.15 190.996 1.08284 190.996 1C190.996 0.917157 190.929 0.85 190.846 0.85V1.15ZM203.939 0.85C203.856 0.85 203.789 0.917157 203.789 1C203.789 1.08284 203.856 1.15 203.939 1.15V0.85ZM217.032 1.15C217.115 1.15 217.182 1.08284 217.182 1C217.182 0.917157 217.115 0.85 217.032 0.85V1.15ZM230.125 0.85C230.042 0.85 229.975 0.917157 229.975 1C229.975 1.08284 230.042 1.15 230.125 1.15V0.85ZM243.218 1.15C243.301 1.15 243.368 1.08284 243.368 1C243.368 0.917157 243.301 0.85 243.218 0.85V1.15ZM256.311 0.85C256.228 0.85 256.161 0.917157 256.161 1C256.161 1.08284 256.228 1.15 256.311 1.15V0.85ZM269.404 1.15C269.486 1.15 269.554 1.08284 269.554 1C269.554 0.917157 269.486 0.85 269.404 0.85V1.15ZM282.497 0.85C282.414 0.85 282.347 0.917157 282.347 1C282.347 1.08284 282.414 1.15 282.497 1.15V0.85ZM295.589 1.15C295.672 1.15 295.739 1.08284 295.739 1C295.739 0.917157 295.672 0.85 295.589 0.85V1.15ZM308.682 0.85C308.599 0.85 308.532 0.917157 308.532 1C308.532 1.08284 308.599 1.15 308.682 1.15V0.85ZM321.775 1.15C321.858 1.15 321.925 1.08284 321.925 1C321.925 0.917157 321.858 0.85 321.775 0.85V1.15ZM334.868 0.85C334.785 0.85 334.718 0.917157 334.718 1C334.718 1.08284 334.785 1.15 334.868 1.15V0.85ZM347.961 1.15C348.044 1.15 348.111 1.08284 348.111 1C348.111 0.917157 348.044 0.85 347.961 0.85V1.15ZM361.054 0.85C360.971 0.85 360.904 0.917157 360.904 1C360.904 1.08284 360.971 1.15 361.054 1.15V0.85ZM374.147 1.15C374.229 1.15 374.297 1.08284 374.297 1C374.297 0.917157 374.229 0.85 374.147 0.85V1.15ZM387.239 0.85C387.157 0.85 387.089 0.917157 387.089 1C387.089 1.08284 387.157 1.15 387.239 1.15V0.85ZM400.332 1.15C400.415 1.15 400.482 1.08284 400.482 1C400.482 0.917157 400.415 0.85 400.332 0.85V1.15ZM413.425 0.85C413.342 0.85 413.275 0.917157 413.275 1C413.275 1.08284 413.342 1.15 413.425 1.15V0.85ZM426.518 1.15C426.601 1.15 426.668 1.08284 426.668 1C426.668 0.917157 426.601 0.85 426.518 0.85V1.15ZM439.611 0.85C439.528 0.85 439.461 0.917157 439.461 1C439.461 1.08284 439.528 1.15 439.611 1.15V0.85ZM452.704 1.15C452.787 1.15 452.854 1.08284 452.854 1C452.854 0.917157 452.787 0.85 452.704 0.85V1.15ZM465.797 0.85C465.714 0.85 465.647 0.917157 465.647 1C465.647 1.08284 465.714 1.15 465.797 1.15V0.85ZM478.89 1.15C478.972 1.15 479.04 1.08284 479.04 1C479.04 0.917157 478.972 0.85 478.89 0.85V1.15ZM491.982 0.85C491.9 0.85 491.832 0.917157 491.832 1C491.832 1.08284 491.9 1.15 491.982 1.15V0.85ZM505.075 1.15C505.158 1.15 505.225 1.08284 505.225 1C505.225 0.917157 505.158 0.85 505.075 0.85V1.15ZM518.168 0.85C518.085 0.85 518.018 0.917157 518.018 1C518.018 1.08284 518.085 1.15 518.168 1.15V0.85ZM531.261 1.15C531.344 1.15 531.411 1.08284 531.411 1C531.411 0.917157 531.344 0.85 531.261 0.85V1.15ZM544.354 0.85C544.271 0.85 544.204 0.917157 544.204 1C544.204 1.08284 544.271 1.15 544.354 1.15V0.85ZM557.447 1.15C557.529 1.15 557.597 1.08284 557.597 1C557.597 0.917157 557.529 0.85 557.447 0.85V1.15ZM570.539 0.85C570.457 0.85 570.389 0.917157 570.389 1C570.389 1.08284 570.457 1.15 570.539 1.15V0.85ZM583.632 1.15C583.715 1.15 583.782 1.08284 583.782 1C583.782 0.917157 583.715 0.85 583.632 0.85V1.15ZM596.725 0.85C596.642 0.85 596.575 0.917157 596.575 1C596.575 1.08284 596.642 1.15 596.725 1.15V0.85ZM609.818 1.15C609.901 1.15 609.968 1.08284 609.968 1C609.968 0.917157 609.901 0.85 609.818 0.85V1.15ZM622.911 0.85C622.828 0.85 622.761 0.917157 622.761 1C622.761 1.08284 622.828 1.15 622.911 1.15V0.85ZM636.004 1.15C636.086 1.15 636.154 1.08284 636.154 1C636.154 0.917157 636.086 0.85 636.004 0.85V1.15ZM649.096 0.85C649.014 0.85 648.946 0.917157 648.946 1C648.946 1.08284 649.014 1.15 649.096 1.15V0.85ZM662.189 1.15C662.272 1.15 662.339 1.08284 662.339 1C662.339 0.917157 662.272 0.85 662.189 0.85V1.15ZM675.282 0.85C675.199 0.85 675.132 0.917157 675.132 1C675.132 1.08284 675.199 1.15 675.282 1.15V0.85ZM688.375 1.15C688.458 1.15 688.525 1.08284 688.525 1C688.525 0.917157 688.458 0.85 688.375 0.85V1.15ZM701.468 0.85C701.385 0.85 701.318 0.917157 701.318 1C701.318 1.08284 701.385 1.15 701.468 1.15V0.85ZM714.561 1.15C714.643 1.15 714.711 1.08284 714.711 1C714.711 0.917157 714.643 0.85 714.561 0.85V1.15ZM727.653 0.85C727.571 0.85 727.503 0.917157 727.503 1C727.503 1.08284 727.571 1.15 727.653 1.15V0.85ZM740.746 1.15C740.829 1.15 740.896 1.08284 740.896 1C740.896 0.917157 740.829 0.85 740.746 0.85V1.15ZM753.839 0.85C753.756 0.85 753.689 0.917157 753.689 1C753.689 1.08284 753.756 1.15 753.839 1.15V0.85ZM766.932 1.15C767.015 1.15 767.082 1.08284 767.082 1C767.082 0.917157 767.015 0.85 766.932 0.85V1.15ZM780.025 0.85C779.942 0.85 779.875 0.917157 779.875 1C779.875 1.08284 779.942 1.15 780.025 1.15V0.85ZM793.118 1.15C793.2 1.15 793.268 1.08284 793.268 1C793.268 0.917157 793.2 0.85 793.118 0.85V1.15ZM806.21 0.85C806.128 0.85 806.06 0.917157 806.06 1C806.06 1.08284 806.128 1.15 806.21 1.15V0.85ZM819.303 1.15C819.386 1.15 819.453 1.08284 819.453 1C819.453 0.917157 819.386 0.85 819.303 0.85V1.15ZM832.396 0.85C832.313 0.85 832.246 0.917157 832.246 1C832.246 1.08284 832.313 1.15 832.396 1.15V0.85ZM845.489 1.15C845.572 1.15 845.639 1.08284 845.639 1C845.639 0.917157 845.572 0.85 845.489 0.85V1.15ZM858.582 0.85C858.499 0.85 858.432 0.917157 858.432 1C858.432 1.08284 858.499 1.15 858.582 1.15V0.85ZM871.675 1.15C871.757 1.15 871.825 1.08284 871.825 1C871.825 0.917157 871.757 0.85 871.675 0.85V1.15ZM884.767 0.85C884.685 0.85 884.617 0.917157 884.617 1C884.617 1.08284 884.685 1.15 884.767 1.15V0.85ZM897.86 1.15C897.943 1.15 898.01 1.08284 898.01 1C898.01 0.917157 897.943 0.85 897.86 0.85V1.15ZM910.953 0.85C910.87 0.85 910.803 0.917157 910.803 1C910.803 1.08284 910.87 1.15 910.953 1.15V0.85ZM917.35 7.36458C917.35 7.44743 917.417 7.51458 917.5 7.51458C917.583 7.51458 917.65 7.44743 917.65 7.36458H917.35ZM917.65 20.0938C917.65 20.0109 917.583 19.9437 917.5 19.9437C917.417 19.9437 917.35 20.0109 917.35 20.0938H917.65ZM917.35 32.8229C917.35 32.9058 917.417 32.9729 917.5 32.9729C917.583 32.9729 917.65 32.9058 917.65 32.8229H917.35ZM917.65 45.5521C917.65 45.4692 917.583 45.4021 917.5 45.4021C917.417 45.4021 917.35 45.4692 917.35 45.5521H917.65ZM917.35 58.2813C917.35 58.3641 917.417 58.4313 917.5 58.4313C917.583 58.4313 917.65 58.3641 917.65 58.2813H917.35ZM917.65 71.0104C917.65 70.9276 917.583 70.8604 917.5 70.8604C917.417 70.8604 917.35 70.9276 917.35 71.0104H917.65ZM917.35 83.7396C917.35 83.8224 917.417 83.8896 917.5 83.8896C917.583 83.8896 917.65 83.8224 917.65 83.7396H917.35ZM917.65 96.4688C917.65 96.3859 917.583 96.3187 917.5 96.3187C917.417 96.3187 917.35 96.3859 917.35 96.4688H917.65ZM917.35 109.198C917.35 109.281 917.417 109.348 917.5 109.348C917.583 109.348 917.65 109.281 917.65 109.198H917.35ZM917.65 121.927C917.65 121.844 917.583 121.777 917.5 121.777C917.417 121.777 917.35 121.844 917.35 121.927H917.65ZM917.35 134.656C917.35 134.739 917.417 134.806 917.5 134.806C917.583 134.806 917.65 134.739 917.65 134.656H917.35ZM917.65 147.385C917.65 147.303 917.583 147.235 917.5 147.235C917.417 147.235 917.35 147.303 917.35 147.385H917.65ZM917.35 160.115C917.35 160.197 917.417 160.265 917.5 160.265C917.583 160.265 917.65 160.197 917.65 160.115H917.35ZM917.65 172.844C917.65 172.761 917.583 172.694 917.5 172.694C917.417 172.694 917.35 172.761 917.35 172.844H917.65ZM917.35 185.573C917.35 185.656 917.417 185.723 917.5 185.723C917.583 185.723 917.65 185.656 917.65 185.573H917.35ZM917.65 198.302C917.65 198.219 917.583 198.152 917.5 198.152C917.417 198.152 917.35 198.219 917.35 198.302H917.65ZM917.35 211.031C917.35 211.114 917.417 211.181 917.5 211.181C917.583 211.181 917.65 211.114 917.65 211.031H917.35ZM917.65 223.76C917.65 223.678 917.583 223.61 917.5 223.61C917.417 223.61 917.35 223.678 917.35 223.76H917.65ZM917.35 236.49C917.35 236.572 917.417 236.64 917.5 236.64C917.583 236.64 917.65 236.572 917.65 236.49H917.35ZM917.65 249.219C917.65 249.136 917.583 249.069 917.5 249.069C917.417 249.069 917.35 249.136 917.35 249.219H917.65ZM917.35 261.948C917.35 262.031 917.417 262.098 917.5 262.098C917.583 262.098 917.65 262.031 917.65 261.948H917.35ZM917.65 274.677C917.65 274.594 917.583 274.527 917.5 274.527C917.417 274.527 917.35 274.594 917.35 274.677H917.65ZM917.35 287.406C917.35 287.489 917.417 287.556 917.5 287.556C917.583 287.556 917.65 287.489 917.65 287.406H917.35ZM917.65 300.135C917.65 300.053 917.583 299.985 917.5 299.985C917.417 299.985 917.35 300.053 917.35 300.135H917.65ZM910.954 306.35C910.871 306.35 910.804 306.417 910.804 306.5C910.804 306.583 910.871 306.65 910.954 306.65V306.35ZM897.861 306.65C897.944 306.65 898.011 306.583 898.011 306.5C898.011 306.417 897.944 306.35 897.861 306.35V306.65ZM884.768 306.35C884.685 306.35 884.618 306.417 884.618 306.5C884.618 306.583 884.685 306.65 884.768 306.65V306.35ZM871.675 306.65C871.758 306.65 871.825 306.583 871.825 306.5C871.825 306.417 871.758 306.35 871.675 306.35V306.65ZM858.582 306.35C858.499 306.35 858.432 306.417 858.432 306.5C858.432 306.583 858.499 306.65 858.582 306.65V306.35ZM845.489 306.65C845.572 306.65 845.639 306.583 845.639 306.5C845.639 306.417 845.572 306.35 845.489 306.35V306.65ZM832.396 306.35C832.314 306.35 832.246 306.417 832.246 306.5C832.246 306.583 832.314 306.65 832.396 306.65V306.35ZM819.304 306.65C819.386 306.65 819.454 306.583 819.454 306.5C819.454 306.417 819.386 306.35 819.304 306.35V306.65ZM806.211 306.35C806.128 306.35 806.061 306.417 806.061 306.5C806.061 306.583 806.128 306.65 806.211 306.65V306.35ZM793.118 306.65C793.201 306.65 793.268 306.583 793.268 306.5C793.268 306.417 793.201 306.35 793.118 306.35V306.65ZM780.025 306.35C779.942 306.35 779.875 306.417 779.875 306.5C779.875 306.583 779.942 306.65 780.025 306.65V306.35ZM766.932 306.65C767.015 306.65 767.082 306.583 767.082 306.5C767.082 306.417 767.015 306.35 766.932 306.35V306.65ZM753.839 306.35C753.756 306.35 753.689 306.417 753.689 306.5C753.689 306.583 753.756 306.65 753.839 306.65V306.35ZM740.746 306.65C740.829 306.65 740.896 306.583 740.896 306.5C740.896 306.417 740.829 306.35 740.746 306.35V306.65ZM727.654 306.35C727.571 306.35 727.504 306.417 727.504 306.5C727.504 306.583 727.571 306.65 727.654 306.65V306.35ZM714.561 306.65C714.644 306.65 714.711 306.583 714.711 306.5C714.711 306.417 714.644 306.35 714.561 306.35V306.65ZM701.468 306.35C701.385 306.35 701.318 306.417 701.318 306.5C701.318 306.583 701.385 306.65 701.468 306.65V306.35ZM688.375 306.65C688.458 306.65 688.525 306.583 688.525 306.5C688.525 306.417 688.458 306.35 688.375 306.35V306.65ZM675.282 306.35C675.199 306.35 675.132 306.417 675.132 306.5C675.132 306.583 675.199 306.65 675.282 306.65V306.35ZM662.189 306.65C662.272 306.65 662.339 306.583 662.339 306.5C662.339 306.417 662.272 306.35 662.189 306.35V306.65ZM649.096 306.35C649.014 306.35 648.946 306.417 648.946 306.5C648.946 306.583 649.014 306.65 649.096 306.65V306.35ZM636.003 306.65C636.086 306.65 636.153 306.583 636.153 306.5C636.153 306.417 636.086 306.35 636.003 306.35V306.65ZM622.911 306.35C622.828 306.35 622.761 306.417 622.761 306.5C622.761 306.583 622.828 306.65 622.911 306.65V306.35ZM609.818 306.65C609.901 306.65 609.968 306.583 609.968 306.5C609.968 306.417 609.901 306.35 609.818 306.35V306.65ZM596.725 306.35C596.642 306.35 596.575 306.417 596.575 306.5C596.575 306.583 596.642 306.65 596.725 306.65V306.35ZM583.632 306.65C583.715 306.65 583.782 306.583 583.782 306.5C583.782 306.417 583.715 306.35 583.632 306.35V306.65ZM570.539 306.35C570.456 306.35 570.389 306.417 570.389 306.5C570.389 306.583 570.456 306.65 570.539 306.65V306.35ZM557.446 306.65C557.529 306.65 557.596 306.583 557.596 306.5C557.596 306.417 557.529 306.35 557.446 306.35V306.65ZM544.353 306.35C544.271 306.35 544.203 306.417 544.203 306.5C544.203 306.583 544.271 306.65 544.353 306.65V306.35ZM531.261 306.65C531.343 306.65 531.411 306.583 531.411 306.5C531.411 306.417 531.343 306.35 531.261 306.35V306.65ZM518.168 306.35C518.085 306.35 518.018 306.417 518.018 306.5C518.018 306.583 518.085 306.65 518.168 306.65V306.35ZM505.075 306.65C505.158 306.65 505.225 306.583 505.225 306.5C505.225 306.417 505.158 306.35 505.075 306.35V306.65ZM491.982 306.35C491.899 306.35 491.832 306.417 491.832 306.5C491.832 306.583 491.899 306.65 491.982 306.65V306.35ZM478.889 306.65C478.972 306.65 479.039 306.583 479.039 306.5C479.039 306.417 478.972 306.35 478.889 306.35V306.65ZM465.796 306.35C465.713 306.35 465.646 306.417 465.646 306.5C465.646 306.583 465.713 306.65 465.796 306.65V306.35ZM452.703 306.65C452.786 306.65 452.853 306.583 452.853 306.5C452.853 306.417 452.786 306.35 452.703 306.35V306.65ZM439.61 306.35C439.528 306.35 439.46 306.417 439.46 306.5C439.46 306.583 439.528 306.65 439.61 306.65V306.35ZM426.518 306.65C426.6 306.65 426.668 306.583 426.668 306.5C426.668 306.417 426.6 306.35 426.518 306.35V306.65ZM413.425 306.35C413.342 306.35 413.275 306.417 413.275 306.5C413.275 306.583 413.342 306.65 413.425 306.65V306.35ZM400.332 306.65C400.415 306.65 400.482 306.583 400.482 306.5C400.482 306.417 400.415 306.35 400.332 306.35V306.65ZM387.239 306.35C387.156 306.35 387.089 306.417 387.089 306.5C387.089 306.583 387.156 306.65 387.239 306.65V306.35ZM374.146 306.65C374.229 306.65 374.296 306.583 374.296 306.5C374.296 306.417 374.229 306.35 374.146 306.35V306.65ZM361.053 306.35C360.971 306.35 360.903 306.417 360.903 306.5C360.903 306.583 360.971 306.65 361.053 306.65V306.35ZM347.961 306.65C348.043 306.65 348.111 306.583 348.111 306.5C348.111 306.417 348.043 306.35 347.961 306.35V306.65ZM334.868 306.35C334.785 306.35 334.718 306.417 334.718 306.5C334.718 306.583 334.785 306.65 334.868 306.65V306.35ZM321.775 306.65C321.858 306.65 321.925 306.583 321.925 306.5C321.925 306.417 321.858 306.35 321.775 306.35V306.65ZM308.682 306.35C308.599 306.35 308.532 306.417 308.532 306.5C308.532 306.583 308.599 306.65 308.682 306.65V306.35ZM295.589 306.65C295.672 306.65 295.739 306.583 295.739 306.5C295.739 306.417 295.672 306.35 295.589 306.35V306.65ZM282.496 306.35C282.414 306.35 282.346 306.417 282.346 306.5C282.346 306.583 282.414 306.65 282.496 306.65V306.35ZM269.404 306.65C269.486 306.65 269.554 306.583 269.554 306.5C269.554 306.417 269.486 306.35 269.404 306.35V306.65ZM256.311 306.35C256.228 306.35 256.161 306.417 256.161 306.5C256.161 306.583 256.228 306.65 256.311 306.65V306.35ZM243.218 306.65C243.301 306.65 243.368 306.583 243.368 306.5C243.368 306.417 243.301 306.35 243.218 306.35V306.65ZM230.125 306.35C230.042 306.35 229.975 306.417 229.975 306.5C229.975 306.583 230.042 306.65 230.125 306.65V306.35ZM217.032 306.65C217.115 306.65 217.182 306.583 217.182 306.5C217.182 306.417 217.115 306.35 217.032 306.35V306.65ZM203.939 306.35C203.857 306.35 203.789 306.417 203.789 306.5C203.789 306.583 203.857 306.65 203.939 306.65V306.35ZM190.847 306.65C190.929 306.65 190.997 306.583 190.997 306.5C190.997 306.417 190.929 306.35 190.847 306.35V306.65ZM177.754 306.35C177.671 306.35 177.604 306.417 177.604 306.5C177.604 306.583 177.671 306.65 177.754 306.65V306.35ZM164.661 306.65C164.744 306.65 164.811 306.583 164.811 306.5C164.811 306.417 164.744 306.35 164.661 306.35V306.65ZM151.568 306.35C151.485 306.35 151.418 306.417 151.418 306.5C151.418 306.583 151.485 306.65 151.568 306.65V306.35ZM138.475 306.65C138.558 306.65 138.625 306.583 138.625 306.5C138.625 306.417 138.558 306.35 138.475 306.35V306.65ZM125.382 306.35C125.3 306.35 125.232 306.417 125.232 306.5C125.232 306.583 125.3 306.65 125.382 306.65V306.35ZM112.29 306.65C112.372 306.65 112.44 306.583 112.44 306.5C112.44 306.417 112.372 306.35 112.29 306.35V306.65ZM99.1967 306.35C99.1139 306.35 99.0467 306.417 99.0467 306.5C99.0467 306.583 99.1139 306.65 99.1967 306.65V306.35ZM86.1039 306.65C86.1867 306.65 86.2539 306.583 86.2539 306.5C86.2539 306.417 86.1867 306.35 86.1039 306.35V306.65ZM73.0111 306.35C72.9282 306.35 72.8611 306.417 72.8611 306.5C72.8611 306.583 72.9282 306.65 73.0111 306.65V306.35ZM59.9182 306.65C60.0011 306.65 60.0682 306.583 60.0682 306.5C60.0682 306.417 60.0011 306.35 59.9182 306.35V306.65ZM46.8254 306.35C46.7426 306.35 46.6754 306.417 46.6754 306.5C46.6754 306.583 46.7426 306.65 46.8254 306.65V306.35ZM33.7326 306.65C33.8154 306.65 33.8826 306.583 33.8826 306.5C33.8826 306.417 33.8154 306.35 33.7326 306.35V306.65ZM20.6397 306.35C20.5569 306.35 20.4897 306.417 20.4897 306.5C20.4897 306.583 20.5569 306.65 20.6397 306.65V306.35ZM7.54685 306.65C7.62969 306.65 7.69685 306.583 7.69685 306.5C7.69685 306.417 7.62969 306.35 7.54685 306.35V306.65ZM0.85 313.202C0.85 313.285 0.917157 313.352 1 313.352C1.08284 313.352 1.15 313.285 1.15 313.202H0.85ZM1.15 326.606C1.15 326.523 1.08284 326.456 1 326.456C0.917157 326.456 0.85 326.523 0.85 326.606H1.15ZM0.85 340.01C0.85 340.092 0.917157 340.16 1 340.16C1.08284 340.16 1.15 340.092 1.15 340.01H0.85ZM1.15 353.413C1.15 353.331 1.08284 353.263 1 353.263C0.917157 353.263 0.85 353.331 0.85 353.413H1.15ZM0.85 366.817C0.85 366.9 0.917157 366.967 1 366.967C1.08284 366.967 1.15 366.9 1.15 366.817H0.85ZM1.15 380.221C1.15 380.138 1.08284 380.071 1 380.071C0.917157 380.071 0.85 380.138 0.85 380.221H1.15ZM0.85 393.625C0.85 393.708 0.917157 393.775 1 393.775C1.08284 393.775 1.15 393.708 1.15 393.625H0.85ZM1.15 407.029C1.15 406.946 1.08284 406.879 1 406.879C0.917157 406.879 0.85 406.946 0.85 407.029H1.15ZM0.85 420.433C0.85 420.516 0.917157 420.583 1 420.583C1.08284 420.583 1.15 420.516 1.15 420.433H0.85ZM1.15 433.837C1.15 433.754 1.08284 433.687 1 433.687C0.917157 433.687 0.85 433.754 0.85 433.837H1.15ZM0.85 447.24C0.85 447.323 0.917157 447.39 1 447.39C1.08284 447.39 1.15 447.323 1.15 447.24H0.85ZM1.15 460.644C1.15 460.561 1.08284 460.494 1 460.494C0.917157 460.494 0.85 460.561 0.85 460.644H1.15ZM0.85 474.048C0.85 474.131 0.917157 474.198 1 474.198C1.08284 474.198 1.15 474.131 1.15 474.048H0.85ZM1.15 487.452C1.15 487.369 1.08284 487.302 1 487.302C0.917157 487.302 0.85 487.369 0.85 487.452H1.15ZM0.85 500.856C0.85 500.939 0.917157 501.006 1 501.006C1.08284 501.006 1.15 500.939 1.15 500.856H0.85ZM1.15 514.26C1.15 514.177 1.08284 514.11 1 514.11C0.917157 514.11 0.85 514.177 0.85 514.26H1.15ZM0.85 527.663C0.85 527.746 0.917157 527.813 1 527.813C1.08284 527.813 1.15 527.746 1.15 527.663H0.85ZM1.15 541.067C1.15 540.984 1.08284 540.917 1 540.917C0.917157 540.917 0.85 540.984 0.85 541.067H1.15ZM0.85 554.471C0.85 554.554 0.917157 554.621 1 554.621C1.08284 554.621 1.15 554.554 1.15 554.471H0.85ZM1.15 567.875C1.15 567.792 1.08284 567.725 1 567.725C0.917157 567.725 0.85 567.792 0.85 567.875H1.15ZM0.85 581.279C0.85 581.362 0.917157 581.429 1 581.429C1.08284 581.429 1.15 581.362 1.15 581.279H0.85ZM1.15 594.683C1.15 594.6 1.08284 594.533 1 594.533C0.917157 594.533 0.85 594.6 0.85 594.683H1.15ZM0.85 608.086C0.85 608.169 0.917157 608.236 1 608.236C1.08284 608.236 1.15 608.169 1.15 608.086H0.85ZM1.15 621.49C1.15 621.407 1.08284 621.34 1 621.34C0.917157 621.34 0.85 621.407 0.85 621.49H1.15ZM0.85 634.894C0.85 634.977 0.917157 635.044 1 635.044C1.08284 635.044 1.15 634.977 1.15 634.894H0.85ZM1.15 648.298C1.15 648.215 1.08284 648.148 1 648.148C0.917157 648.148 0.85 648.215 0.85 648.298H1.15ZM7.44688 655.15C7.52972 655.15 7.59688 655.083 7.59688 655C7.59688 654.917 7.52972 654.85 7.44688 654.85V655.15ZM20.3406 654.85C20.2578 654.85 20.1906 654.917 20.1906 655C20.1906 655.083 20.2578 655.15 20.3406 655.15V654.85ZM33.2344 655.15C33.3172 655.15 33.3844 655.083 33.3844 655C33.3844 654.917 33.3172 654.85 33.2344 654.85V655.15ZM46.1281 654.85C46.0453 654.85 45.9781 654.917 45.9781 655C45.9781 655.083 46.0453 655.15 46.1281 655.15V654.85ZM59.0219 655.15C59.1047 655.15 59.1719 655.083 59.1719 655C59.1719 654.917 59.1047 654.85 59.0219 654.85V655.15ZM71.9156 654.85C71.8328 654.85 71.7656 654.917 71.7656 655C71.7656 655.083 71.8328 655.15 71.9156 655.15V654.85ZM84.8094 655.15C84.8922 655.15 84.9594 655.083 84.9594 655C84.9594 654.917 84.8922 654.85 84.8094 654.85V655.15ZM97.7031 654.85C97.6203 654.85 97.5531 654.917 97.5531 655C97.5531 655.083 97.6203 655.15 97.7031 655.15V654.85ZM110.597 655.15C110.68 655.15 110.747 655.083 110.747 655C110.747 654.917 110.68 654.85 110.597 654.85V655.15ZM123.491 654.85C123.408 654.85 123.341 654.917 123.341 655C123.341 655.083 123.408 655.15 123.491 655.15V654.85ZM136.384 655.15C136.467 655.15 136.534 655.083 136.534 655C136.534 654.917 136.467 654.85 136.384 654.85V655.15ZM149.278 654.85C149.195 654.85 149.128 654.917 149.128 655C149.128 655.083 149.195 655.15 149.278 655.15V654.85ZM162.172 655.15C162.255 655.15 162.322 655.083 162.322 655C162.322 654.917 162.255 654.85 162.172 654.85V655.15ZM175.066 654.85C174.983 654.85 174.916 654.917 174.916 655C174.916 655.083 174.983 655.15 175.066 655.15V654.85ZM187.959 655.15C188.042 655.15 188.109 655.083 188.109 655C188.109 654.917 188.042 654.85 187.959 654.85V655.15ZM200.853 654.85C200.77 654.85 200.703 654.917 200.703 655C200.703 655.083 200.77 655.15 200.853 655.15V654.85ZM213.747 655.15C213.83 655.15 213.897 655.083 213.897 655C213.897 654.917 213.83 654.85 213.747 654.85V655.15ZM226.641 654.85C226.558 654.85 226.491 654.917 226.491 655C226.491 655.083 226.558 655.15 226.641 655.15V654.85ZM239.534 655.15C239.617 655.15 239.684 655.083 239.684 655C239.684 654.917 239.617 654.85 239.534 654.85V655.15ZM252.428 654.85C252.345 654.85 252.278 654.917 252.278 655C252.278 655.083 252.345 655.15 252.428 655.15V654.85ZM265.322 655.15C265.405 655.15 265.472 655.083 265.472 655C265.472 654.917 265.405 654.85 265.322 654.85V655.15ZM278.216 654.85C278.133 654.85 278.066 654.917 278.066 655C278.066 655.083 278.133 655.15 278.216 655.15V654.85ZM291.109 655.15C291.192 655.15 291.259 655.083 291.259 655C291.259 654.917 291.192 654.85 291.109 654.85V655.15ZM304.003 654.85C303.92 654.85 303.853 654.917 303.853 655C303.853 655.083 303.92 655.15 304.003 655.15V654.85ZM316.897 655.15C316.98 655.15 317.047 655.083 317.047 655C317.047 654.917 316.98 654.85 316.897 654.85V655.15ZM329.791 654.85C329.708 654.85 329.641 654.917 329.641 655C329.641 655.083 329.708 655.15 329.791 655.15V654.85ZM342.684 655.15C342.767 655.15 342.834 655.083 342.834 655C342.834 654.917 342.767 654.85 342.684 654.85V655.15ZM355.578 654.85C355.495 654.85 355.428 654.917 355.428 655C355.428 655.083 355.495 655.15 355.578 655.15V654.85ZM368.472 655.15C368.555 655.15 368.622 655.083 368.622 655C368.622 654.917 368.555 654.85 368.472 654.85V655.15ZM381.366 654.85C381.283 654.85 381.216 654.917 381.216 655C381.216 655.083 381.283 655.15 381.366 655.15V654.85ZM394.259 655.15C394.342 655.15 394.409 655.083 394.409 655C394.409 654.917 394.342 654.85 394.259 654.85V655.15ZM407.153 654.85C407.07 654.85 407.003 654.917 407.003 655C407.003 655.083 407.07 655.15 407.153 655.15V654.85ZM420.047 655.15C420.13 655.15 420.197 655.083 420.197 655C420.197 654.917 420.13 654.85 420.047 654.85V655.15ZM432.94 654.85C432.858 654.85 432.79 654.917 432.79 655C432.79 655.083 432.858 655.15 432.94 655.15V654.85ZM445.834 655.15C445.917 655.15 445.984 655.083 445.984 655C445.984 654.917 445.917 654.85 445.834 654.85V655.15ZM458.728 654.85C458.645 654.85 458.578 654.917 458.578 655C458.578 655.083 458.645 655.15 458.728 655.15V654.85ZM471.622 655.15C471.705 655.15 471.772 655.083 471.772 655C471.772 654.917 471.705 654.85 471.622 654.85V655.15ZM484.515 654.85C484.433 654.85 484.365 654.917 484.365 655C484.365 655.083 484.433 655.15 484.515 655.15V654.85ZM497.409 655.15C497.492 655.15 497.559 655.083 497.559 655C497.559 654.917 497.492 654.85 497.409 654.85V655.15ZM510.303 654.85C510.22 654.85 510.153 654.917 510.153 655C510.153 655.083 510.22 655.15 510.303 655.15V654.85ZM523.197 655.15C523.279 655.15 523.347 655.083 523.347 655C523.347 654.917 523.279 654.85 523.197 654.85V655.15ZM536.09 654.85C536.008 654.85 535.94 654.917 535.94 655C535.94 655.083 536.008 655.15 536.09 655.15V654.85ZM548.984 655.15C549.067 655.15 549.134 655.083 549.134 655C549.134 654.917 549.067 654.85 548.984 654.85V655.15ZM561.878 654.85C561.795 654.85 561.728 654.917 561.728 655C561.728 655.083 561.795 655.15 561.878 655.15V654.85ZM574.772 655.15C574.854 655.15 574.922 655.083 574.922 655C574.922 654.917 574.854 654.85 574.772 654.85V655.15ZM587.665 654.85C587.582 654.85 587.515 654.917 587.515 655C587.515 655.083 587.582 655.15 587.665 655.15V654.85ZM600.559 655.15C600.642 655.15 600.709 655.083 600.709 655C600.709 654.917 600.642 654.85 600.559 654.85V655.15ZM613.453 654.85C613.37 654.85 613.303 654.917 613.303 655C613.303 655.083 613.37 655.15 613.453 655.15V654.85ZM626.347 655.15C626.429 655.15 626.497 655.083 626.497 655C626.497 654.917 626.429 654.85 626.347 654.85V655.15ZM639.24 654.85C639.157 654.85 639.09 654.917 639.09 655C639.09 655.083 639.157 655.15 639.24 655.15V654.85ZM652.134 655.15C652.217 655.15 652.284 655.083 652.284 655C652.284 654.917 652.217 654.85 652.134 654.85V655.15ZM665.028 654.85C664.945 654.85 664.878 654.917 664.878 655C664.878 655.083 664.945 655.15 665.028 655.15V654.85ZM677.922 655.15C678.004 655.15 678.072 655.083 678.072 655C678.072 654.917 678.004 654.85 677.922 654.85V655.15ZM690.815 654.85C690.732 654.85 690.665 654.917 690.665 655C690.665 655.083 690.732 655.15 690.815 655.15V654.85ZM703.709 655.15C703.792 655.15 703.859 655.083 703.859 655C703.859 654.917 703.792 654.85 703.709 654.85V655.15ZM716.603 654.85C716.52 654.85 716.453 654.917 716.453 655C716.453 655.083 716.52 655.15 716.603 655.15V654.85ZM729.496 655.15C729.579 655.15 729.646 655.083 729.646 655C729.646 654.917 729.579 654.85 729.496 654.85V655.15ZM742.39 654.85C742.307 654.85 742.24 654.917 742.24 655C742.24 655.083 742.307 655.15 742.39 655.15V654.85ZM755.284 655.15C755.367 655.15 755.434 655.083 755.434 655C755.434 654.917 755.367 654.85 755.284 654.85V655.15ZM768.178 654.85C768.095 654.85 768.028 654.917 768.028 655C768.028 655.083 768.095 655.15 768.178 655.15V654.85ZM781.071 655.15C781.154 655.15 781.221 655.083 781.221 655C781.221 654.917 781.154 654.85 781.071 654.85V655.15ZM793.965 654.85C793.882 654.85 793.815 654.917 793.815 655C793.815 655.083 793.882 655.15 793.965 655.15V654.85ZM806.859 655.15C806.942 655.15 807.009 655.083 807.009 655C807.009 654.917 806.942 654.85 806.859 654.85V655.15ZM819.753 654.85C819.67 654.85 819.603 654.917 819.603 655C819.603 655.083 819.67 655.15 819.753 655.15V654.85ZM832.646 655.15C832.729 655.15 832.796 655.083 832.796 655C832.796 654.917 832.729 654.85 832.646 654.85V655.15ZM845.54 654.85C845.457 654.85 845.39 654.917 845.39 655C845.39 655.083 845.457 655.15 845.54 655.15V654.85ZM858.434 655.15C858.517 655.15 858.584 655.083 858.584 655C858.584 654.917 858.517 654.85 858.434 654.85V655.15ZM871.328 654.85C871.245 654.85 871.178 654.917 871.178 655C871.178 655.083 871.245 655.15 871.328 655.15V654.85ZM884.221 655.15C884.304 655.15 884.371 655.083 884.371 655C884.371 654.917 884.304 654.85 884.221 654.85V655.15ZM897.115 654.85C897.032 654.85 896.965 654.917 896.965 655C896.965 655.083 897.032 655.15 897.115 655.15V654.85ZM910.009 655.15C910.092 655.15 910.159 655.083 910.159 655C910.159 654.917 910.092 654.85 910.009 654.85V655.15ZM922.903 654.85C922.82 654.85 922.753 654.917 922.753 655C922.753 655.083 922.82 655.15 922.903 655.15V654.85ZM935.796 655.15C935.879 655.15 935.946 655.083 935.946 655C935.946 654.917 935.879 654.85 935.796 654.85V655.15ZM948.69 654.85C948.607 654.85 948.54 654.917 948.54 655C948.54 655.083 948.607 655.15 948.69 655.15V654.85ZM961.584 655.15C961.667 655.15 961.734 655.083 961.734 655C961.734 654.917 961.667 654.85 961.584 654.85V655.15ZM974.477 654.85C974.395 654.85 974.327 654.917 974.327 655C974.327 655.083 974.395 655.15 974.477 655.15V654.85ZM987.371 655.15C987.454 655.15 987.521 655.083 987.521 655C987.521 654.917 987.454 654.85 987.371 654.85V655.15ZM1000.26 654.85C1000.18 654.85 1000.11 654.917 1000.11 655C1000.11 655.083 1000.18 655.15 1000.26 655.15V654.85ZM1013.16 655.15C1013.24 655.15 1013.31 655.083 1013.31 655C1013.31 654.917 1013.24 654.85 1013.16 654.85V655.15ZM1026.05 654.85C1025.97 654.85 1025.9 654.917 1025.9 655C1025.9 655.083 1025.97 655.15 1026.05 655.15V654.85ZM1032.35 661.455C1032.35 661.538 1032.42 661.605 1032.5 661.605C1032.58 661.605 1032.65 661.538 1032.65 661.455H1032.35ZM1032.65 674.366C1032.65 674.283 1032.58 674.216 1032.5 674.216C1032.42 674.216 1032.35 674.283 1032.35 674.366H1032.65ZM1032.35 687.277C1032.35 687.36 1032.42 687.427 1032.5 687.427C1032.58 687.427 1032.65 687.36 1032.65 687.277H1032.35ZM1032.65 700.188C1032.65 700.105 1032.58 700.037 1032.5 700.037C1032.42 700.037 1032.35 700.105 1032.35 700.188H1032.65ZM1032.35 713.098C1032.35 713.181 1032.42 713.248 1032.5 713.248C1032.58 713.248 1032.65 713.181 1032.65 713.098H1032.35ZM1032.65 726.009C1032.65 725.926 1032.58 725.859 1032.5 725.859C1032.42 725.859 1032.35 725.926 1032.35 726.009H1032.65ZM1032.35 738.92C1032.35 739.002 1032.42 739.07 1032.5 739.07C1032.58 739.07 1032.65 739.002 1032.65 738.92H1032.35ZM1032.65 751.83C1032.65 751.748 1032.58 751.68 1032.5 751.68C1032.42 751.68 1032.35 751.748 1032.35 751.83H1032.65ZM1032.35 764.741C1032.35 764.824 1032.42 764.891 1032.5 764.891C1032.58 764.891 1032.65 764.824 1032.65 764.741H1032.35ZM1032.65 777.652C1032.65 777.569 1032.58 777.502 1032.5 777.502C1032.42 777.502 1032.35 777.569 1032.35 777.652H1032.65ZM1032.35 790.562C1032.35 790.645 1032.42 790.713 1032.5 790.713C1032.58 790.713 1032.65 790.645 1032.65 790.562H1032.35ZM1032.65 803.473C1032.65 803.39 1032.58 803.323 1032.5 803.323C1032.42 803.323 1032.35 803.39 1032.35 803.473H1032.65ZM1032.35 816.384C1032.35 816.467 1032.42 816.534 1032.5 816.534C1032.58 816.534 1032.65 816.467 1032.65 816.384H1032.35ZM1032.65 829.295C1032.65 829.212 1032.58 829.145 1032.5 829.145C1032.42 829.145 1032.35 829.212 1032.35 829.295H1032.65ZM1032.35 842.205C1032.35 842.288 1032.42 842.355 1032.5 842.355C1032.58 842.355 1032.65 842.288 1032.65 842.205H1032.35ZM1032.65 855.116C1032.65 855.033 1032.58 854.966 1032.5 854.966C1032.42 854.966 1032.35 855.033 1032.35 855.116H1032.65ZM1032.35 868.027C1032.35 868.11 1032.42 868.177 1032.5 868.177C1032.58 868.177 1032.65 868.11 1032.65 868.027H1032.35ZM1032.65 880.938C1032.65 880.855 1032.58 880.788 1032.5 880.788C1032.42 880.788 1032.35 880.855 1032.35 880.938H1032.65ZM1032.35 893.848C1032.35 893.931 1032.42 893.998 1032.5 893.998C1032.58 893.998 1032.65 893.931 1032.65 893.848H1032.35ZM1032.65 906.759C1032.65 906.676 1032.58 906.609 1032.5 906.609C1032.42 906.609 1032.35 906.676 1032.35 906.759H1032.65ZM1032.35 919.67C1032.35 919.753 1032.42 919.82 1032.5 919.82C1032.58 919.82 1032.65 919.753 1032.65 919.67H1032.35ZM1032.65 932.58C1032.65 932.498 1032.58 932.43 1032.5 932.43C1032.42 932.43 1032.35 932.498 1032.35 932.58H1032.65ZM1032.35 945.491C1032.35 945.574 1032.42 945.641 1032.5 945.641C1032.58 945.641 1032.65 945.574 1032.65 945.491H1032.35ZM1032.65 958.402C1032.65 958.319 1032.58 958.252 1032.5 958.252C1032.42 958.252 1032.35 958.319 1032.35 958.402H1032.65ZM1032.35 971.313C1032.35 971.395 1032.42 971.463 1032.5 971.463C1032.58 971.463 1032.65 971.395 1032.65 971.313H1032.35ZM1032.65 984.223C1032.65 984.14 1032.58 984.073 1032.5 984.073C1032.42 984.073 1032.35 984.14 1032.35 984.223H1032.65ZM1032.35 997.134C1032.35 997.217 1032.42 997.284 1032.5 997.284C1032.58 997.284 1032.65 997.217 1032.65 997.134H1032.35ZM1032.65 1010.04C1032.65 1009.96 1032.58 1009.89 1032.5 1009.89C1032.42 1009.89 1032.35 1009.96 1032.35 1010.04H1032.65ZM1026.14 1016.35C1026.05 1016.35 1025.99 1016.42 1025.99 1016.5C1025.99 1016.58 1026.05 1016.65 1026.14 1016.65V1016.35ZM1013.41 1016.65C1013.49 1016.65 1013.56 1016.58 1013.56 1016.5C1013.56 1016.42 1013.49 1016.35 1013.41 1016.35V1016.65ZM1000.68 1016.35C1000.6 1016.35 1000.53 1016.42 1000.53 1016.5C1000.53 1016.58 1000.6 1016.65 1000.68 1016.65V1016.35ZM987.955 1016.65C988.037 1016.65 988.105 1016.58 988.105 1016.5C988.105 1016.42 988.037 1016.35 987.955 1016.35V1016.65ZM975.227 1016.35C975.144 1016.35 975.077 1016.42 975.077 1016.5C975.077 1016.58 975.144 1016.65 975.227 1016.65V1016.35ZM962.5 1016.65C962.583 1016.65 962.65 1016.58 962.65 1016.5C962.65 1016.42 962.583 1016.35 962.5 1016.35V1016.65ZM949.773 1016.35C949.69 1016.35 949.623 1016.42 949.623 1016.5C949.623 1016.58 949.69 1016.65 949.773 1016.65V1016.35ZM937.045 1016.65C937.128 1016.65 937.195 1016.58 937.195 1016.5C937.195 1016.42 937.128 1016.35 937.045 1016.35V1016.65ZM924.318 1016.35C924.235 1016.35 924.168 1016.42 924.168 1016.5C924.168 1016.58 924.235 1016.65 924.318 1016.65V1016.35ZM911.591 1016.65C911.674 1016.65 911.741 1016.58 911.741 1016.5C911.741 1016.42 911.674 1016.35 911.591 1016.35V1016.65ZM898.864 1016.35C898.781 1016.35 898.714 1016.42 898.714 1016.5C898.714 1016.58 898.781 1016.65 898.864 1016.65V1016.35ZM886.136 1016.65C886.219 1016.65 886.286 1016.58 886.286 1016.5C886.286 1016.42 886.219 1016.35 886.136 1016.35V1016.65ZM873.409 1016.35C873.326 1016.35 873.259 1016.42 873.259 1016.5C873.259 1016.58 873.326 1016.65 873.409 1016.65V1016.35ZM860.682 1016.65C860.765 1016.65 860.832 1016.58 860.832 1016.5C860.832 1016.42 860.765 1016.35 860.682 1016.35V1016.65ZM847.955 1016.35C847.872 1016.35 847.805 1016.42 847.805 1016.5C847.805 1016.58 847.872 1016.65 847.955 1016.65V1016.35ZM835.227 1016.65C835.31 1016.65 835.377 1016.58 835.377 1016.5C835.377 1016.42 835.31 1016.35 835.227 1016.35V1016.65ZM822.5 1016.35C822.417 1016.35 822.35 1016.42 822.35 1016.5C822.35 1016.58 822.417 1016.65 822.5 1016.65V1016.35ZM809.773 1016.65C809.856 1016.65 809.923 1016.58 809.923 1016.5C809.923 1016.42 809.856 1016.35 809.773 1016.35V1016.65ZM797.045 1016.35C796.963 1016.35 796.895 1016.42 796.895 1016.5C796.895 1016.58 796.963 1016.65 797.045 1016.65V1016.35ZM784.318 1016.65C784.401 1016.65 784.468 1016.58 784.468 1016.5C784.468 1016.42 784.401 1016.35 784.318 1016.35V1016.65ZM771.591 1016.35C771.508 1016.35 771.441 1016.42 771.441 1016.5C771.441 1016.58 771.508 1016.65 771.591 1016.65V1016.35ZM758.864 1016.65C758.946 1016.65 759.014 1016.58 759.014 1016.5C759.014 1016.42 758.946 1016.35 758.864 1016.35V1016.65ZM746.136 1016.35C746.053 1016.35 745.986 1016.42 745.986 1016.5C745.986 1016.58 746.053 1016.65 746.136 1016.65V1016.35ZM733.409 1016.65C733.492 1016.65 733.559 1016.58 733.559 1016.5C733.559 1016.42 733.492 1016.35 733.409 1016.35V1016.65ZM720.682 1016.35C720.599 1016.35 720.532 1016.42 720.532 1016.5C720.532 1016.58 720.599 1016.65 720.682 1016.65V1016.35ZM707.955 1016.65C708.037 1016.65 708.105 1016.58 708.105 1016.5C708.105 1016.42 708.037 1016.35 707.955 1016.35V1016.65ZM695.227 1016.35C695.144 1016.35 695.077 1016.42 695.077 1016.5C695.077 1016.58 695.144 1016.65 695.227 1016.65V1016.35ZM682.5 1016.65C682.583 1016.65 682.65 1016.58 682.65 1016.5C682.65 1016.42 682.583 1016.35 682.5 1016.35V1016.65ZM669.773 1016.35C669.69 1016.35 669.623 1016.42 669.623 1016.5C669.623 1016.58 669.69 1016.65 669.773 1016.65V1016.35ZM657.045 1016.65C657.128 1016.65 657.195 1016.58 657.195 1016.5C657.195 1016.42 657.128 1016.35 657.045 1016.35V1016.65ZM644.318 1016.35C644.235 1016.35 644.168 1016.42 644.168 1016.5C644.168 1016.58 644.235 1016.65 644.318 1016.65V1016.35ZM631.591 1016.65C631.674 1016.65 631.741 1016.58 631.741 1016.5C631.741 1016.42 631.674 1016.35 631.591 1016.35V1016.65ZM618.864 1016.35C618.781 1016.35 618.714 1016.42 618.714 1016.5C618.714 1016.58 618.781 1016.65 618.864 1016.65V1016.35ZM606.136 1016.65C606.219 1016.65 606.286 1016.58 606.286 1016.5C606.286 1016.42 606.219 1016.35 606.136 1016.35V1016.65ZM593.409 1016.35C593.326 1016.35 593.259 1016.42 593.259 1016.5C593.259 1016.58 593.326 1016.65 593.409 1016.65V1016.35ZM580.682 1016.65C580.765 1016.65 580.832 1016.58 580.832 1016.5C580.832 1016.42 580.765 1016.35 580.682 1016.35V1016.65ZM567.955 1016.35C567.872 1016.35 567.805 1016.42 567.805 1016.5C567.805 1016.58 567.872 1016.65 567.955 1016.65V1016.35ZM555.227 1016.65C555.31 1016.65 555.377 1016.58 555.377 1016.5C555.377 1016.42 555.31 1016.35 555.227 1016.35V1016.65ZM542.5 1016.35C542.417 1016.35 542.35 1016.42 542.35 1016.5C542.35 1016.58 542.417 1016.65 542.5 1016.65V1016.35ZM529.773 1016.65C529.856 1016.65 529.923 1016.58 529.923 1016.5C529.923 1016.42 529.856 1016.35 529.773 1016.35V1016.65ZM517.046 1016.35C516.963 1016.35 516.896 1016.42 516.896 1016.5C516.896 1016.58 516.963 1016.65 517.046 1016.65V1016.35ZM504.318 1016.65C504.401 1016.65 504.468 1016.58 504.468 1016.5C504.468 1016.42 504.401 1016.35 504.318 1016.35V1016.65ZM491.591 1016.35C491.508 1016.35 491.441 1016.42 491.441 1016.5C491.441 1016.58 491.508 1016.65 491.591 1016.65V1016.35ZM478.864 1016.65C478.947 1016.65 479.014 1016.58 479.014 1016.5C479.014 1016.42 478.947 1016.35 478.864 1016.35V1016.65ZM1 1.15H7.54643V0.85H1V1.15ZM20.6393 1.15H33.7321V0.85H20.6393V1.15ZM46.825 1.15H59.9179V0.85H46.825V1.15ZM73.0107 1.15H86.1036V0.85H73.0107V1.15ZM99.1964 1.15H112.289V0.85H99.1964V1.15ZM125.382 1.15H138.475V0.85H125.382V1.15ZM151.568 1.15H164.661V0.85H151.568V1.15ZM177.754 1.15H190.846V0.85H177.754V1.15ZM203.939 1.15H217.032V0.85H203.939V1.15ZM230.125 1.15H243.218V0.85H230.125V1.15ZM256.311 1.15H269.404V0.85H256.311V1.15ZM282.497 1.15H295.589V0.85H282.497V1.15ZM308.682 1.15H321.775V0.85H308.682V1.15ZM334.868 1.15H347.961V0.85H334.868V1.15ZM361.054 1.15H374.147V0.85H361.054V1.15ZM387.239 1.15H400.332V0.85H387.239V1.15ZM413.425 1.15H426.518V0.85H413.425V1.15ZM439.611 1.15H452.704V0.85H439.611V1.15ZM465.797 1.15H478.89V0.85H465.797V1.15ZM491.982 1.15H505.075V0.85H491.982V1.15ZM518.168 1.15H531.261V0.85H518.168V1.15ZM544.354 1.15H557.447V0.85H544.354V1.15ZM570.539 1.15H583.632V0.85H570.539V1.15ZM596.725 1.15H609.818V0.85H596.725V1.15ZM622.911 1.15H636.004V0.85H622.911V1.15ZM649.096 1.15H662.189V0.85H649.096V1.15ZM675.282 1.15H688.375V0.85H675.282V1.15ZM701.468 1.15H714.561V0.85H701.468V1.15ZM727.653 1.15H740.746V0.85H727.653V1.15ZM753.839 1.15H766.932V0.85H753.839V1.15ZM780.025 1.15H793.118V0.85H780.025V1.15ZM806.21 1.15H819.303V0.85H806.21V1.15ZM832.396 1.15H845.489V0.85H832.396V1.15ZM858.582 1.15H871.675V0.85H858.582V1.15ZM884.767 1.15H897.86V0.85H884.767V1.15ZM910.953 1.15H917.5V0.85H910.953V1.15ZM917.35 1V7.36458H917.65V1H917.35ZM917.35 20.0938V32.8229H917.65V20.0938H917.35ZM917.35 45.5521V58.2813H917.65V45.5521H917.35ZM917.35 71.0104V83.7396H917.65V71.0104H917.35ZM917.35 96.4688V109.198H917.65V96.4688H917.35ZM917.35 121.927V134.656H917.65V121.927H917.35ZM917.35 147.385V160.115H917.65V147.385H917.35ZM917.35 172.844V185.573H917.65V172.844H917.35ZM917.35 198.302V211.031H917.65V198.302H917.35ZM917.35 223.76V236.49H917.65V223.76H917.35ZM917.35 249.219V261.948H917.65V249.219H917.35ZM917.35 274.677V287.406H917.65V274.677H917.35ZM917.35 300.135V306.5H917.65V300.135H917.35ZM917.5 306.35H910.954V306.65H917.5V306.35ZM897.861 306.35H884.768V306.65H897.861V306.35ZM871.675 306.35H858.582V306.65H871.675V306.35ZM845.489 306.35H832.396V306.65H845.489V306.35ZM819.304 306.35H806.211V306.65H819.304V306.35ZM793.118 306.35H780.025V306.65H793.118V306.35ZM766.932 306.35H753.839V306.65H766.932V306.35ZM740.746 306.35H727.654V306.65H740.746V306.35ZM714.561 306.35H701.468V306.65H714.561V306.35ZM688.375 306.35H675.282V306.65H688.375V306.35ZM662.189 306.35H649.096V306.65H662.189V306.35ZM636.003 306.35H622.911V306.65H636.003V306.35ZM609.818 306.35H596.725V306.65H609.818V306.35ZM583.632 306.35H570.539V306.65H583.632V306.35ZM557.446 306.35H544.353V306.65H557.446V306.35ZM531.261 306.35H518.168V306.65H531.261V306.35ZM505.075 306.35H491.982V306.65H505.075V306.35ZM478.889 306.35H465.796V306.65H478.889V306.35ZM452.703 306.35H439.61V306.65H452.703V306.35ZM426.518 306.35H413.425V306.65H426.518V306.35ZM400.332 306.35H387.239V306.65H400.332V306.35ZM374.146 306.35H361.053V306.65H374.146V306.35ZM347.961 306.35H334.868V306.65H347.961V306.35ZM321.775 306.35H308.682V306.65H321.775V306.35ZM295.589 306.35H282.496V306.65H295.589V306.35ZM269.404 306.35H256.311V306.65H269.404V306.35ZM243.218 306.35H230.125V306.65H243.218V306.35ZM217.032 306.35H203.939V306.65H217.032V306.35ZM190.847 306.35H177.754V306.65H190.847V306.35ZM164.661 306.35H151.568V306.65H164.661V306.35ZM138.475 306.35H125.382V306.65H138.475V306.35ZM112.29 306.35H99.1967V306.65H112.29V306.35ZM86.1039 306.35H73.0111V306.65H86.1039V306.35ZM59.9182 306.35H46.8254V306.65H59.9182V306.35ZM33.7326 306.35H20.6397V306.65H33.7326V306.35ZM7.54685 306.35H1V306.65H7.54685V306.35ZM0.85 306.5V313.202H1.15V306.5H0.85ZM0.85 326.606V340.01H1.15V326.606H0.85ZM0.85 353.413V366.817H1.15V353.413H0.85ZM0.85 380.221V393.625H1.15V380.221H0.85ZM0.85 407.029V420.433H1.15V407.029H0.85ZM0.85 433.837V447.24H1.15V433.837H0.85ZM0.85 460.644V474.048H1.15V460.644H0.85ZM0.85 487.452V500.856H1.15V487.452H0.85ZM0.85 514.26V527.663H1.15V514.26H0.85ZM0.85 541.067V554.471H1.15V541.067H0.85ZM0.85 567.875V581.279H1.15V567.875H0.85ZM0.85 594.683V608.086H1.15V594.683H0.85ZM0.85 621.49V634.894H1.15V621.49H0.85ZM0.85 648.298V655H1.15V648.298H0.85ZM1 655.15H7.44688V654.85H1V655.15ZM20.3406 655.15H33.2344V654.85H20.3406V655.15ZM46.1281 655.15H59.0219V654.85H46.1281V655.15ZM71.9156 655.15H84.8094V654.85H71.9156V655.15ZM97.7031 655.15H110.597V654.85H97.7031V655.15ZM123.491 655.15H136.384V654.85H123.491V655.15ZM149.278 655.15H162.172V654.85H149.278V655.15ZM175.066 655.15H187.959V654.85H175.066V655.15ZM200.853 655.15H213.747V654.85H200.853V655.15ZM226.641 655.15H239.534V654.85H226.641V655.15ZM252.428 655.15H265.322V654.85H252.428V655.15ZM278.216 655.15H291.109V654.85H278.216V655.15ZM304.003 655.15H316.897V654.85H304.003V655.15ZM329.791 655.15H342.684V654.85H329.791V655.15ZM355.578 655.15H368.472V654.85H355.578V655.15ZM381.366 655.15H394.259V654.85H381.366V655.15ZM407.153 655.15H420.047V654.85H407.153V655.15ZM432.94 655.15H445.834V654.85H432.94V655.15ZM458.728 655.15H471.622V654.85H458.728V655.15ZM484.515 655.15H497.409V654.85H484.515V655.15ZM510.303 655.15H523.197V654.85H510.303V655.15ZM536.09 655.15H548.984V654.85H536.09V655.15ZM561.878 655.15H574.772V654.85H561.878V655.15ZM587.665 655.15H600.559V654.85H587.665V655.15ZM613.453 655.15H626.347V654.85H613.453V655.15ZM639.24 655.15H652.134V654.85H639.24V655.15ZM665.028 655.15H677.922V654.85H665.028V655.15ZM690.815 655.15H703.709V654.85H690.815V655.15ZM716.603 655.15H729.496V654.85H716.603V655.15ZM742.39 655.15H755.284V654.85H742.39V655.15ZM768.178 655.15H781.071V654.85H768.178V655.15ZM793.965 655.15H806.859V654.85H793.965V655.15ZM819.753 655.15H832.646V654.85H819.753V655.15ZM845.54 655.15H858.434V654.85H845.54V655.15ZM871.328 655.15H884.221V654.85H871.328V655.15ZM897.115 655.15H910.009V654.85H897.115V655.15ZM922.903 655.15H935.796V654.85H922.903V655.15ZM948.69 655.15H961.584V654.85H948.69V655.15ZM974.477 655.15H987.371V654.85H974.477V655.15ZM1000.26 655.15H1013.16V654.85H1000.26V655.15ZM1026.05 655.15H1032.5V654.85H1026.05V655.15ZM1032.35 655V661.455H1032.65V655H1032.35ZM1032.35 674.366V687.277H1032.65V674.366H1032.35ZM1032.35 700.188V713.098H1032.65V700.188H1032.35ZM1032.35 726.009V738.92H1032.65V726.009H1032.35ZM1032.35 751.83V764.741H1032.65V751.83H1032.35ZM1032.35 777.652V790.562H1032.65V777.652H1032.35ZM1032.35 803.473V816.384H1032.65V803.473H1032.35ZM1032.35 829.295V842.205H1032.65V829.295H1032.35ZM1032.35 855.116V868.027H1032.65V855.116H1032.35ZM1032.35 880.938V893.848H1032.65V880.938H1032.35ZM1032.35 906.759V919.67H1032.65V906.759H1032.35ZM1032.35 932.58V945.491H1032.65V932.58H1032.35ZM1032.35 958.402V971.313H1032.65V958.402H1032.35ZM1032.35 984.223V997.134H1032.65V984.223H1032.35ZM1032.35 1010.04V1016.5H1032.65V1010.04H1032.35ZM1032.5 1016.35H1026.14V1016.65H1032.5V1016.35ZM1013.41 1016.35H1000.68V1016.65H1013.41V1016.35ZM987.955 1016.35H975.227V1016.65H987.955V1016.35ZM962.5 1016.35H949.773V1016.65H962.5V1016.35ZM937.045 1016.35H924.318V1016.65H937.045V1016.35ZM911.591 1016.35H898.864V1016.65H911.591V1016.35ZM886.136 1016.35H873.409V1016.65H886.136V1016.35ZM860.682 1016.35H847.955V1016.65H860.682V1016.35ZM835.227 1016.35H822.5V1016.65H835.227V1016.35ZM809.773 1016.35H797.045V1016.65H809.773V1016.35ZM784.318 1016.35H771.591V1016.65H784.318V1016.35ZM758.864 1016.35H746.136V1016.65H758.864V1016.35ZM733.409 1016.35H720.682V1016.65H733.409V1016.35ZM707.955 1016.35H695.227V1016.65H707.955V1016.35ZM682.5 1016.35H669.773V1016.65H682.5V1016.35ZM657.045 1016.35H644.318V1016.65H657.045V1016.35ZM631.591 1016.35H618.864V1016.65H631.591V1016.35ZM606.136 1016.35H593.409V1016.65H606.136V1016.35ZM580.682 1016.35H567.955V1016.65H580.682V1016.35ZM555.227 1016.35H542.5V1016.65H555.227V1016.35ZM529.773 1016.35H517.046V1016.65H529.773V1016.35ZM504.318 1016.35H491.591V1016.65H504.318V1016.35ZM478.864 1016.35H472.5V1016.65H478.864V1016.35Z" fill="#01D3EC"/>
</svg>
