<svg width="40" height="40" viewBox="0 0 40 40" fill="none" xmlns="http://www.w3.org/2000/svg">
<path fill-rule="evenodd" clip-rule="evenodd" d="M32.9529 13.4812C32.9642 13.7727 32.9679 14.0641 32.9679 14.3555C32.9679 23.1925 26.7515 33.3943 15.3839 33.3943C11.892 33.3943 8.64495 32.2814 5.90918 30.3868C6.39278 30.4398 6.88391 30.4796 7.38258 30.4796C10.2779 30.4796 12.9446 29.4063 15.0598 27.6044C12.3555 27.5647 10.0719 25.6171 9.28432 22.9673C9.6624 23.0468 10.0518 23.0867 10.4499 23.0867C11.0114 23.0867 11.5566 23.0072 12.0791 22.8483C9.24912 22.2388 7.11755 19.5361 7.11755 16.2901C7.11755 16.2504 7.11755 16.2371 7.11755 16.2106C7.95159 16.7008 8.90621 17.0053 9.91988 17.0451C8.25932 15.8394 7.16776 13.7859 7.16776 11.4674C7.16776 10.2485 7.47174 9.09576 8.00683 8.10209C11.0541 12.1563 15.61 14.8193 20.7462 15.0975C20.6407 14.6073 20.5866 14.0908 20.5866 13.574C20.5866 9.87761 23.3538 6.8833 26.7679 6.8833C28.5452 6.8833 30.1505 7.6916 31.2772 8.98999C32.6878 8.69851 34.0092 8.1421 35.205 7.37366C34.7415 8.93703 33.763 10.2484 32.4843 11.0698C33.7354 10.9108 34.9287 10.5534 36.0353 10.0234C35.2051 11.3616 34.16 12.5405 32.9529 13.4812Z" fill="#1EA1F2"/>
</svg>
