<svg width="40" height="40" viewBox="0 0 40 40" fill="none" xmlns="http://www.w3.org/2000/svg">
<path d="M36.1798 11.51C35.7906 10.0643 34.6508 8.92452 33.2052 8.53531C30.5641 7.8125 19.9999 7.8125 19.9999 7.8125C19.9999 7.8125 9.43572 7.8125 6.79467 8.50751C5.37684 8.89672 4.20922 10.0643 3.82001 11.51C3.125 14.151 3.125 19.6277 3.125 19.6277C3.125 19.6277 3.125 25.1322 3.82001 27.7455C4.20922 29.1911 5.34904 30.3309 6.79467 30.7201C9.46352 31.443 19.9999 31.443 19.9999 31.443C19.9999 31.443 30.5641 31.443 33.2052 30.7479C34.6508 30.3587 35.7906 29.2189 36.1798 27.7733C36.8749 25.1322 36.8749 19.6555 36.8749 19.6555C36.8749 19.6555 36.9027 14.151 36.1798 11.51Z" fill="#FF0000"/>
<path d="M16.636 24.4944L25.421 19.4347L16.636 14.375V24.4944Z" fill="white"/>
</svg>
